<svg width="256" height="256" viewBox="0 0 256 256" fill="none" xmlns="http://www.w3.org/2000/svg">
  <rect width="256" height="256" rx="64" fill="url(#paint0_linear_41_2)"/>
  <path d="M128 48L72 72V118C72 159.5 96 197 128 212C160 197 184 159.5 184 118V72L128 48Z" fill="white" fill-opacity="0.95"/>
  <path d="M128 86C114.193 86 103 97.1929 103 111V121.857C97.9602 124.755 94.5 130.194 94.5 136.5C94.5 145.889 102.111 153.5 111.5 153.5H144.5C153.889 153.5 161.5 145.889 161.5 136.5C161.5 130.194 158.04 124.755 153 121.857V111C153 97.1929 141.807 86 128 86ZM118 111C118 105.477 122.477 101 128 101C133.523 101 138 105.477 138 111V119.5H118V111Z" fill="url(#paint1_linear_41_2)"/>
  <defs>
    <linearGradient id="paint0_linear_41_2" x1="34" y1="20" x2="223" y2="236" gradientUnits="userSpaceOnUse">
      <stop stop-color="#1E3A8A"/>
      <stop offset="0.45" stop-color="#1D4ED8"/>
      <stop offset="1" stop-color="#3B82F6"/>
    </linearGradient>
    <linearGradient id="paint1_linear_41_2" x1="104" y1="87" x2="150" y2="154" gradientUnits="userSpaceOnUse">
      <stop stop-color="#1E3A8A"/>
      <stop offset="1" stop-color="#2563EB"/>
    </linearGradient>
  </defs>
</svg>
