<svg width="1200" height="630" viewBox="0 0 1200 630" fill="none" xmlns="http://www.w3.org/2000/svg">
  <rect width="1200" height="630" fill="#08122B"/>
  <rect width="1200" height="630" fill="url(#paint0_radial_41_3)"/>
  <rect width="1200" height="630" fill="url(#paint1_radial_41_3)"/>
  <g opacity="0.14">
    <path d="M0 84H1200" stroke="white"/>
    <path d="M0 168H1200" stroke="white"/>
    <path d="M0 252H1200" stroke="white"/>
    <path d="M0 336H1200" stroke="white"/>
    <path d="M0 420H1200" stroke="white"/>
    <path d="M0 504H1200" stroke="white"/>
    <path d="M100 0V630" stroke="white"/>
    <path d="M240 0V630" stroke="white"/>
    <path d="M380 0V630" stroke="white"/>
    <path d="M520 0V630" stroke="white"/>
    <path d="M660 0V630" stroke="white"/>
    <path d="M800 0V630" stroke="white"/>
    <path d="M940 0V630" stroke="white"/>
    <path d="M1080 0V630" stroke="white"/>
  </g>
  <rect x="86" y="92" width="112" height="112" rx="28" fill="url(#paint2_linear_41_3)"/>
  <path d="M142 122L106 137.429V166.929C106 193.607 121.429 217.714 142 227.357C162.571 217.714 178 193.607 178 166.929V137.429L142 122Z" fill="white" fill-opacity="0.97"/>
  <path d="M142 145.5C133.992 145.5 127.5 151.992 127.5 160V166.3C124.577 167.98 122.571 171.132 122.571 174.786C122.571 180.222 126.979 184.629 132.414 184.629H151.586C157.021 184.629 161.429 180.222 161.429 174.786C161.429 171.132 159.423 167.98 156.5 166.3V160C156.5 151.992 150.008 145.5 142 145.5ZM136.189 160C136.189 156.791 138.791 154.189 142 154.189C145.209 154.189 147.811 156.791 147.811 160V164.929H136.189V160Z" fill="#1D4ED8"/>
  <text x="86" y="289" fill="white" font-family="Inter, Arial, sans-serif" font-size="68" font-weight="800">CloudVPN</text>
  <text x="86" y="360" fill="rgba(255,255,255,0.72)" font-family="Inter, Arial, sans-serif" font-size="34" font-weight="500">Fast, secure, private access for every device.</text>
  <g>
    <rect x="86" y="420" width="212" height="58" rx="29" fill="rgba(255,255,255,0.08)" stroke="rgba(255,255,255,0.15)"/>
    <text x="114" y="457" fill="white" font-family="Inter, Arial, sans-serif" font-size="22" font-weight="700">100+ locations</text>
    <rect x="316" y="420" width="212" height="58" rx="29" fill="rgba(255,255,255,0.08)" stroke="rgba(255,255,255,0.15)"/>
    <text x="346" y="457" fill="white" font-family="Inter, Arial, sans-serif" font-size="22" font-weight="700">Zero-log policy</text>
    <rect x="546" y="420" width="248" height="58" rx="29" fill="rgba(255,255,255,0.08)" stroke="rgba(255,255,255,0.15)"/>
    <text x="575" y="457" fill="white" font-family="Inter, Arial, sans-serif" font-size="22" font-weight="700">24/7 human support</text>
  </g>
  <defs>
    <radialGradient id="paint0_radial_41_3" cx="0" cy="0" r="1" gradientUnits="userSpaceOnUse" gradientTransform="translate(856 131) rotate(132.745) scale(633.183 803.001)">
      <stop stop-color="#2563EB" stop-opacity="0.42"/>
      <stop offset="1" stop-color="#2563EB" stop-opacity="0"/>
    </radialGradient>
    <radialGradient id="paint1_radial_41_3" cx="0" cy="0" r="1" gradientUnits="userSpaceOnUse" gradientTransform="translate(215 534) rotate(-15.705) scale(406.854 240.125)">
      <stop stop-color="#1D4ED8" stop-opacity="0.4"/>
      <stop offset="1" stop-color="#1D4ED8" stop-opacity="0"/>
    </radialGradient>
    <linearGradient id="paint2_linear_41_3" x1="98" y1="100" x2="187" y2="195" gradientUnits="userSpaceOnUse">
      <stop stop-color="#1E3A8A"/>
      <stop offset="0.48" stop-color="#1D4ED8"/>
      <stop offset="1" stop-color="#3B82F6"/>
    </linearGradient>
  </defs>
</svg>
